<mxfile host="65bd71144e">
    <diagram id="CqRyuauvRbu1kseLQFl3" name="Page-1">
        <mxGraphModel dx="1085" dy="669" grid="1" gridSize="10" guides="1" tooltips="1" connect="1" arrows="1" fold="1" page="1" pageScale="1" pageWidth="850" pageHeight="1100" math="0" shadow="0">
            <root>
                <mxCell id="0"/>
                <mxCell id="1" parent="0"/>
                <mxCell id="2" value="api/app.js" style="rounded=1;whiteSpace=wrap;html=1;" vertex="1" parent="1">
                    <mxGeometry x="360" y="210" width="120" height="60" as="geometry"/>
                </mxCell>
                <mxCell id="6" value="" style="endArrow=classic;html=1;" edge="1" parent="1">
                    <mxGeometry width="50" height="50" relative="1" as="geometry">
                        <mxPoint x="420" y="280" as="sourcePoint"/>
                        <mxPoint x="420" y="360" as="targetPoint"/>
                    </mxGeometry>
                </mxCell>
                <mxCell id="7" value="https//:...api/app.js" style="swimlane;whiteSpace=wrap;html=1;" vertex="1" parent="1">
                    <mxGeometry x="320" y="370" width="200" height="200" as="geometry"/>
                </mxCell>
                <mxCell id="15" value="Hello Mom." style="rounded=1;whiteSpace=wrap;html=1;" vertex="1" parent="7">
                    <mxGeometry x="10" y="30" width="180" height="160" as="geometry"/>
                </mxCell>
                <mxCell id="11" value="Deploying the application" style="shape=callout;whiteSpace=wrap;html=1;perimeter=calloutPerimeter;size=50;position=0.36;position2=0;base=40;" vertex="1" parent="1">
                    <mxGeometry x="500" y="240" width="120" height="90" as="geometry"/>
                </mxCell>
            </root>
        </mxGraphModel>
    </diagram>
</mxfile>